<svg xmlns="http://www.w3.org/2000/svg" viewBox="0 0 16 16" shape-rendering="crispEdges"><rect x="2" y="2" width="4" height="1" fill="#1d1a26"/><rect x="1" y="3" width="1" height="1" fill="#1d1a26"/><rect x="2" y="3" width="4" height="1" fill="#4cc96a"/><rect x="6" y="3" width="1" height="1" fill="#1d1a26"/><rect x="12" y="3" width="3" height="1" fill="#1d1a26"/><rect x="1" y="4" width="1" height="1" fill="#1d1a26"/><rect x="2" y="4" width="1" height="1" fill="#4cc96a"/><rect x="3" y="4" width="3" height="1" fill="#23863f"/><rect x="6" y="4" width="1" height="1" fill="#4cc96a"/><rect x="7" y="4" width="1" height="1" fill="#1d1a26"/><rect x="11" y="4" width="1" height="1" fill="#1d1a26"/><rect x="12" y="4" width="3" height="1" fill="#4cc96a"/><rect x="15" y="4" width="1" height="1" fill="#1d1a26"/><rect x="2" y="5" width="1" height="1" fill="#1d1a26"/><rect x="3" y="5" width="2" height="1" fill="#4cc96a"/><rect x="5" y="5" width="2" height="1" fill="#23863f"/><rect x="7" y="5" width="1" height="1" fill="#4cc96a"/><rect x="8" y="5" width="1" height="1" fill="#1d1a26"/><rect x="10" y="5" width="1" height="1" fill="#1d1a26"/><rect x="11" y="5" width="1" height="1" fill="#4cc96a"/><rect x="12" y="5" width="2" height="1" fill="#23863f"/><rect x="14" y="5" width="1" height="1" fill="#4cc96a"/><rect x="15" y="5" width="1" height="1" fill="#1d1a26"/><rect x="3" y="6" width="2" height="1" fill="#1d1a26"/><rect x="5" y="6" width="2" height="1" fill="#4cc96a"/><rect x="7" y="6" width="1" height="1" fill="#23863f"/><rect x="8" y="6" width="1" height="1" fill="#6aa84f"/><rect x="9" y="6" width="1" height="1" fill="#1d1a26"/><rect x="10" y="6" width="1" height="1" fill="#4cc96a"/><rect x="11" y="6" width="1" height="1" fill="#23863f"/><rect x="12" y="6" width="2" height="1" fill="#4cc96a"/><rect x="14" y="6" width="1" height="1" fill="#1d1a26"/><rect x="5" y="7" width="3" height="1" fill="#1d1a26"/><rect x="8" y="7" width="1" height="1" fill="#6aa84f"/><rect x="9" y="7" width="5" height="1" fill="#1d1a26"/><rect x="7" y="8" width="1" height="1" fill="#1d1a26"/><rect x="8" y="8" width="1" height="1" fill="#6aa84f"/><rect x="9" y="8" width="1" height="1" fill="#1d1a26"/><rect x="7" y="9" width="1" height="1" fill="#1d1a26"/><rect x="8" y="9" width="1" height="1" fill="#6aa84f"/><rect x="9" y="9" width="1" height="1" fill="#1d1a26"/><rect x="8" y="10" width="1" height="1" fill="#6aa84f"/><rect x="0" y="11" width="16" height="1" fill="#1d1a26"/><rect x="0" y="12" width="1" height="1" fill="#1d1a26"/><rect x="1" y="12" width="9" height="1" fill="#4cc96a"/><rect x="10" y="12" width="5" height="1" fill="#3a4152"/><rect x="15" y="12" width="1" height="1" fill="#1d1a26"/><rect x="0" y="13" width="1" height="1" fill="#1d1a26"/><rect x="1" y="13" width="9" height="1" fill="#23863f"/><rect x="10" y="13" width="5" height="1" fill="#3a4152"/><rect x="15" y="13" width="1" height="1" fill="#1d1a26"/><rect x="0" y="14" width="16" height="1" fill="#1d1a26"/></svg>
